<?xml version="1.0" encoding="utf-8"?>
<!-- Generator: Adobe Illustrator 18.1.1, SVG Export Plug-In . SVG Version: 6.00 Build 0)  -->
<!DOCTYPE svg PUBLIC "-//W3C//DTD SVG 1.1//EN" "http://www.w3.org/Graphics/SVG/1.1/DTD/svg11.dtd">
<svg version="1.1" id="Layer_1" xmlns="http://www.w3.org/2000/svg" xmlns:xlink="http://www.w3.org/1999/xlink" x="0px" y="0px"
	 width="225.5px" height="47.6px" viewBox="0 0 225.5 47.6" enable-background="new 0 0 225.5 47.6" xml:space="preserve">
<g>
	<g>
		<g>
			<g>
				<defs>
					<polyline id="XMLID_2_" points="37.7,8.5 37.7,47.6 0,47.6 0,0 29.2,0 					"/>
				</defs>
				<use xlink:href="#XMLID_2_"  overflow="visible" fill="#E6E6E6"/>
				<clipPath id="XMLID_3_">
					<use xlink:href="#XMLID_2_"  overflow="visible"/>
				</clipPath>
				<g clip-path="url(#XMLID_3_)">
					<polygon opacity="0.65" fill="#E6E6E6" points="29.1,8.5 37.6,12 38.9,8.6 35.9,6.3 					"/>
				</g>
			</g>
			<polygon fill="#F2F2F2" points="29.1,0 29.1,8.5 37.7,8.5 			"/>
		</g>
		<g>
			<g>
				<g>
					<g>
						<g>
							<g>
								<path fill="#2B272D" d="M26.1,21.9c-0.1,0-0.1-0.1-0.2-0.2l-0.1-0.1l0.1-0.1c0.1,0,0.1-0.1,0.1-0.1l0.2,0.1
									c0,0-0.1,0.1-0.1,0.1c0,0,0,0,0.1,0.1L26.1,21.9z"/>
							</g>
							<g>
								<path fill="#2B272D" d="M26.7,22.4c-0.1-0.1-0.2-0.2-0.3-0.2l0.1-0.2c0.1,0.1,0.2,0.2,0.3,0.2L26.7,22.4z"/>
							</g>
							<g>
								<path fill="#2B272D" d="M27.2,22.9L27,22.8l0-0.1c0,0-0.1-0.1-0.1-0.1l0.1-0.2c0.1,0,0.1,0.1,0.2,0.1l0.1,0L27.2,22.9z"/>
							</g>
							<g>
								<polygon fill="#2B272D" points="27.1,23.2 26.8,23.2 26.8,23 27,23 27,22.9 27.2,22.9 								"/>
							</g>
							<g>
								<path fill="#2B272D" d="M26.4,23.1l-0.4,0l0-0.2l0.4,0L26.4,23.1z M25.7,23l-0.4,0l0-0.2l0.4,0L25.7,23z"/>
							</g>
							<g>
								<path fill="#2B272D" d="M25,22.7c0,0-0.1-0.1-0.1-0.1c0,0-0.1,0-0.1,0.1l-0.1-0.2c0.1,0,0.1-0.1,0.2-0.1l0.1,0l0.1,0.1
									c0.1,0,0.1,0.1,0.2,0.1L25,22.7z"/>
							</g>
							<g>
								<path fill="#2B272D" d="M23.1,23.1c0,0-0.1,0-0.1,0l0-0.2c0.1,0,0.3,0,0.4,0l0,0.2C23.4,23.1,23.2,23.1,23.1,23.1z
									 M22.6,23.1c-0.1,0-0.3-0.1-0.4-0.1l0.1-0.2c0.1,0,0.3,0.1,0.4,0.1L22.6,23.1z M23.9,23l0-0.2c0.1,0,0.3-0.1,0.4-0.1
									l0.1,0.2C24.2,22.9,24,23,23.9,23z M21.8,22.8c-0.1-0.1-0.3-0.2-0.4-0.2l0.1-0.2c0.1,0.1,0.2,0.2,0.3,0.2L21.8,22.8z
									 M21.1,22.2c-0.1-0.1-0.2-0.2-0.2-0.4l0.2-0.1c0.1,0.1,0.1,0.2,0.2,0.3L21.1,22.2z M20.7,21.4c0-0.1,0-0.3,0-0.4l0.2,0
									c0,0.1,0,0.3,0,0.4L20.7,21.4z M20.9,20.6l-0.2-0.1c0-0.1,0.1-0.3,0.2-0.4l0.2,0.1C21,20.3,21,20.4,20.9,20.6z M21.3,19.9
									l-0.2-0.1c0.1-0.1,0.2-0.2,0.3-0.3l0.1,0.2C21.5,19.7,21.4,19.8,21.3,19.9z"/>
							</g>
							<g>
								<path fill="#2B272D" d="M22,19.4l-0.1-0.2c0,0,0.1,0,0.1,0c0,0,0-0.1,0-0.1l0.2-0.1c0,0.1,0.1,0.1,0.1,0.2l0.1,0.1l-0.1,0
									C22.1,19.4,22,19.4,22,19.4z"/>
							</g>
							<g>
								<path fill="#2B272D" d="M24.6,19l-0.1-0.2c0.1-0.1,0.2-0.1,0.4-0.2l0.1,0.2C24.8,18.8,24.7,18.9,24.6,19z M21.8,18.7
									c-0.1-0.1-0.1-0.3-0.1-0.4l0.2,0c0,0.1,0.1,0.3,0.1,0.4L21.8,18.7z M25.3,18.4l-0.2-0.1c0.1-0.1,0.2-0.2,0.2-0.3l0.2,0.1
									C25.5,18.2,25.4,18.3,25.3,18.4z M21.6,17.8C21.6,17.8,21.6,17.8,21.6,17.8c0-0.2,0-0.3,0-0.5l0.2,0.1c0,0.1,0,0.2,0,0.3
									l0,0.1L21.6,17.8z M25.7,17.7l-0.2-0.1c0,0,0,0,0-0.1c0-0.1,0-0.2,0-0.3l0.2-0.1c0,0.1,0,0.2,0.1,0.4L25.7,17.7L25.7,17.7
									C25.7,17.6,25.7,17.6,25.7,17.7z M22,17.1l-0.2-0.1c0.1-0.1,0.2-0.2,0.3-0.3l0.1,0.2C22.2,16.9,22.1,17,22,17.1z M25.3,16.9
									c-0.1-0.1-0.2-0.2-0.3-0.3l0.1-0.2c0.1,0.1,0.3,0.2,0.3,0.3L25.3,16.9z M22.6,16.6l-0.1-0.2c0.1-0.1,0.3-0.1,0.4-0.1l0,0.2
									C22.9,16.5,22.7,16.5,22.6,16.6z M24.7,16.5c-0.1,0-0.3-0.1-0.4-0.1l0-0.2c0.2,0,0.3,0,0.4,0.1L24.7,16.5z M23.4,16.4l0-0.2
									c0.1,0,0.3,0,0.4,0l0,0.2C23.7,16.4,23.6,16.4,23.4,16.4z"/>
							</g>
							<g>
								<path fill="#2B272D" d="M24,19.4c0-0.1-0.1-0.1-0.1-0.2l-0.1-0.1l0.1,0c0.1,0,0.1-0.1,0.2-0.1l0.1,0.2c0,0-0.1,0-0.1,0
									c0,0,0,0,0,0.1L24,19.4z"/>
							</g>
							<g>
								<path fill="#2B272D" d="M25.1,20.8c-0.1-0.1-0.2-0.2-0.3-0.3l0.2-0.1c0.1,0.1,0.2,0.2,0.3,0.3L25.1,20.8z M24.5,20.1
									c-0.1-0.1-0.2-0.2-0.3-0.4l0.2-0.1c0.1,0.1,0.2,0.2,0.3,0.4L24.5,20.1z"/>
							</g>
							<g>
								<path fill="#2B272D" d="M25.7,21.4l-0.2-0.2l0.2-0.1l0.1,0.1c0,0,0,0,0-0.1l0.2,0.1c0,0.1-0.1,0.1-0.1,0.2L25.7,21.4z"/>
							</g>
							<g>
								<path fill="#2B272D" d="M26,20.7l-0.2,0c0-0.1,0-0.1,0-0.2c0-0.1,0-0.1,0-0.2l0.2,0c0,0.1,0,0.1,0,0.2
									C26,20.5,26,20.6,26,20.7z M25.7,19.9c-0.1-0.1-0.1-0.2-0.2-0.3l0.2-0.1c0.1,0.1,0.2,0.2,0.2,0.4L25.7,19.9z"/>
							</g>
							<g>
								<path fill="#2B272D" d="M25.2,19.3c-0.1,0-0.1-0.1-0.2-0.1l-0.1,0l0-0.1c0-0.1,0.1-0.1,0.1-0.2l0.2,0.1c0,0,0,0.1,0,0.1
									c0,0,0.1,0,0.1,0.1L25.2,19.3z"/>
							</g>
							<g>
								<path fill="#2B272D" d="M26.6,21.2l-0.2-0.1c0.1-0.1,0.1-0.2,0.2-0.4l0.2,0.1C26.7,21,26.6,21.1,26.6,21.2z M26.9,20.4
									l-0.2-0.1c0-0.1,0.1-0.3,0.1-0.4l0.2,0C27,20.1,27,20.3,26.9,20.4z M26.8,19.6c0-0.1,0-0.3-0.1-0.4l0.2-0.1
									c0,0.1,0.1,0.3,0.1,0.4L26.8,19.6z M26.5,18.8c0,0-0.1-0.1-0.1-0.1c-0.1,0-0.1,0-0.2-0.1l0-0.2c0.1,0,0.1,0,0.2,0.1l0,0
									c0.1,0.1,0.1,0.1,0.2,0.2L26.5,18.8z M25.5,18.7l-0.1-0.2c0.1-0.1,0.3-0.1,0.4-0.1l0,0.2C25.7,18.6,25.6,18.7,25.5,18.7z"/>
							</g>
						</g>
						<g>
							<g>
								<path fill="#2B272D" d="M24.2,22.2l0-0.2c0,0,0,0,0,0l0.2-0.2c0.1,0.1,0.1,0.1,0.2,0.1l0.1,0.1l-0.2,0
									C24.3,22.2,24.2,22.2,24.2,22.2z"/>
							</g>
							<g>
								<path fill="#2B272D" d="M23.8,21.6c-0.1-0.1-0.2-0.2-0.3-0.4l0.2-0.1c0.1,0.1,0.2,0.2,0.3,0.4L23.8,21.6z M23.1,20.9
									c-0.1-0.1-0.2-0.3-0.3-0.4l0.2-0.1c0.1,0.1,0.2,0.3,0.3,0.4L23.1,20.9z"/>
							</g>
							<g>
								<path fill="#2B272D" d="M22.5,20.1C22.5,20.1,22.5,20,22.5,20.1C22.5,20,22.5,20.1,22.5,20.1L22.3,20c0-0.1,0.1-0.1,0.1-0.2
									l0.1-0.1l0.1,0.1c0,0.1,0.1,0.1,0.1,0.2L22.5,20.1z"/>
							</g>
							<g>
								<path fill="#2B272D" d="M23.6,22.2c-0.2,0-0.3-0.1-0.5-0.1l0.1-0.2c0.1,0.1,0.3,0.1,0.4,0.1L23.6,22.2z M22.7,21.8
									c-0.1-0.1-0.3-0.2-0.3-0.4l0.2-0.1c0.1,0.1,0.2,0.2,0.3,0.3L22.7,21.8z M22.2,21c0-0.1,0-0.2,0-0.3c0-0.1,0-0.2,0-0.2l0.2,0
									c0,0.1,0,0.1,0,0.2c0,0.1,0,0.2,0,0.2L22.2,21z"/>
							</g>
						</g>
						<g>
							<g>
								<path fill="#2B272D" d="M23.6,18.8L23.6,18.8c-0.1-0.2-0.1-0.2-0.2-0.3l0.2-0.1c0,0,0,0.1,0,0.1c0,0,0,0,0.1-0.1l0.1,0.2
									C23.8,18.7,23.7,18.7,23.6,18.8L23.6,18.8z"/>
							</g>
							<g>
								<path fill="#2B272D" d="M24.2,18.3L24,18.1c0.1-0.1,0.1-0.2,0.2-0.4l0.2,0C24.3,18,24.3,18.1,24.2,18.3z M23.2,18.1
									c-0.1-0.2-0.1-0.3-0.1-0.5l0.2,0c0,0.1,0.1,0.3,0.1,0.4L23.2,18.1z M24.2,17.3c0-0.1-0.1-0.2-0.2-0.3l0.1-0.2
									c0.2,0.1,0.3,0.2,0.3,0.4L24.2,17.3z M23.3,17.2l-0.2-0.1c0.1-0.2,0.2-0.3,0.4-0.3l0,0.2C23.5,17,23.4,17.1,23.3,17.2z"/>
							</g>
						</g>
					</g>
				</g>
			</g>
			<g>
				<g>
					<path fill="#2B272D" d="M17.2,21.2c0.6,0.6,1.1,1,1.5,1.3l-0.2,0.6l-2.3-0.3c-0.2-0.1-0.4-0.3-0.6-0.5
						c-0.6,0.4-1.5,0.6-2.3,0.6c-1.9,0-3.1-1-3.1-2.7c0-1,0.6-1.8,1.8-2.3c-0.4-0.7-0.6-1.3-0.6-2c0-1,0.8-2,2.7-2
						c1.5,0,2.5,0.5,2.5,1.7c-0.2,0.9-0.9,1.5-2.3,2.1c0.6,0.9,1.4,1.9,2.3,2.7c0.2-0.3,0.3-0.6,0.3-1c0-0.8-0.4-1.4-1.1-1.7
						c0.2-0.5,0.7-0.8,1.2-0.8c0.2,0,0.4,0,0.6,0.1c0.4,0.4,0.6,0.9,0.6,1.5C18.3,19.6,18,20.5,17.2,21.2z M15,21.7
						c-0.9-0.9-1.8-1.9-2.4-2.9c-0.2,0.3-0.3,0.6-0.3,1.1c0,1,0.9,1.9,2,1.9C14.6,21.8,14.8,21.8,15,21.7z M13.4,15.8
						c0,0.4,0.2,0.9,0.6,1.5c0.6-0.4,0.9-0.9,0.9-1.6c0-0.4-0.2-0.8-0.8-0.8C13.7,14.9,13.4,15.3,13.4,15.8z"/>
				</g>
			</g>
		</g>
		<g>
			<rect x="5.8" y="28.8" fill="#C2C0C4" width="26" height="1"/>
		</g>
		<g>
			<rect x="5.8" y="32.8" fill="#C2C0C4" width="26" height="1"/>
		</g>
		<g>
			<rect x="5.8" y="36.8" fill="#C2C0C4" width="26" height="1"/>
		</g>
	</g>
	<g>
		<path fill="#2B272D" d="M59.2,34.5c0,1.4,0.1,1.8,1.9,1.9l1.6,0.1v1.1H52.3v-1.1l1.6-0.1c1.8-0.1,1.9-0.5,1.9-1.9V16.6h-1.8
			c-3.7,0-4.2,0.8-4.7,4.5h-1.1v-5.7h18.7V21h-1.1c-0.4-3.7-1-4.5-4.7-4.5h-1.9V34.5z"/>
		<path fill="#2B272D" d="M83.7,21.9v1c-1.6,0.1-1.8,0.4-2.4,1.7c-1,2.2-3.8,10.1-5.8,15.7c-1.6,4.7-3.3,5.1-4.6,5.1
			c-1.4,0-2.2-0.8-2.2-1.6c0-1,0.8-1.8,1.4-1.8c0.4,0,0.6,0.1,1,0.4c0.5,0.5,0.8,0.6,1.2,0.6c1.1,0,2-2.6,2.2-4.1
			c0.1-0.5-0.1-1.1-0.2-1.6c-0.8-2.3-3.6-9-5.2-12.8c-0.6-1.4-0.9-1.6-2.4-1.7v-1h7.5v1l-1.4,0.2c-0.7,0.1-0.7,0.4-0.5,1
			c1.3,3.3,2.6,6.6,4,10.4h0.1c1.4-3.7,2.9-8.4,3.4-10.3c0.2-0.6,0.1-1-0.4-1.1l-1.7-0.2v-1H83.7z"/>
		<path fill="#2B272D" d="M87.4,24.9c0-1.2-0.2-1.3-1-1.5l-1.2-0.2v-0.9l4.9-0.8l0.4,2.3c1.3-0.8,3.1-2.3,5.4-2.3
			c5.6,0,6.2,5.4,6.2,7.9c0,6.6-3.7,8.6-8.1,8.6c-1.4,0-2.9-0.3-3.6-0.7v4.9c0,1.6,0.2,1.7,2.9,1.8v1.1H85v-1.1
			c2.2-0.2,2.3-0.2,2.3-1.8V24.9z M90.5,32.6c0,0.7,0,1.4,0.2,1.9c0.5,1.5,1.8,2.2,3.4,2.2c3.1,0,4.6-2.5,4.6-7.2
			c0-5.5-2.8-6.3-4-6.3c-1.7,0-3,0.8-3.7,2.2c-0.3,0.6-0.4,1-0.4,1.8V32.6z"/>
		<path fill="#2B272D" d="M119,29.7c0,5.2-2.5,8.2-7.7,8.2c-5.1,0-7.7-3.1-7.7-8.2c0-5.2,2.5-8.3,7.7-8.3S119,24.5,119,29.7z
			 M111.3,36.8c2.9,0,4.3-2.7,4.3-7c0-4.4-1.4-7.1-4.3-7.1c-2.9,0-4.2,2.7-4.2,7.1C107,34.1,108.4,36.8,111.3,36.8z"/>
		<path fill="#2B272D" d="M135.3,21.4l0.3,0.3l-0.6,2h-2.5c0.5,0.5,1,1.8,1,3.1c0,4-3.4,5.2-6.5,5.2c-0.4,0-1.2,0-1.8-0.1
			c-0.4,0.1-1.5,0.5-1.5,1.5c0,0.6,0.3,1.4,2.6,1.4h2.9c3.4,0,5.8,1.2,5.8,4.7c0,2.2-1.2,3.8-2.7,4.8c-1.6,1-3.2,1.3-5.4,1.3
			c-3.8,0-7-1.5-7-4.8c0-2.3,2.3-3.1,3.7-3.6v-0.1c-1.6-0.2-2.8-1.4-2.8-2.6c0-1.3,1.1-2.2,2.9-2.9v-0.1c-1.4-0.4-3.3-1.7-3.3-4.8
			c0-2.4,1.7-5.3,6.7-5.3c1.5,0,3.2,0.4,4.1,1L135.3,21.4z M132.2,40.6c0-2.3-1.7-3.1-4.9-3.1c-1.8,0-2.8,0.2-3.5,0.7
			c-0.6,0.5-1.1,1.2-1.1,2.3c0,2.3,2.1,3.8,5,3.8C130,44.3,132.2,43.1,132.2,40.6z M123.7,26.9c0,2.7,1.5,4,3.2,4
			c1.8,0,3.2-1.4,3.2-4c0-3.1-1.6-4.2-3.2-4.2C125.3,22.7,123.7,23.7,123.7,26.9z"/>
		<path fill="#2B272D" d="M142.1,34.7c0,1.6,0.2,1.7,3,1.8v1.1h-8.5v-1.1c2.2-0.2,2.4-0.2,2.4-1.8v-9.8c0-1.2-0.2-1.4-1-1.5
			l-1.2-0.2v-0.9l5-0.8l0.4,2.6c2.1-1.9,3-2.7,4.2-2.7c1.3,0,1.7,0.9,1.7,1.6c0,1-0.7,2-1.5,2c-0.2,0-0.4,0-0.7-0.2
			c-0.8-0.6-1.3-0.8-1.8-0.8c-0.7,0-1.9,0.9-1.9,3.3V34.7z"/>
		<path fill="#2B272D" d="M161.1,33.4c0,2,0.5,2.5,1.1,2.7c0.3,0.1,0.8,0.1,1.3,0l0.1,1c-0.8,0.5-2.2,0.9-3.4,0.9
			c-1.1,0-1.7-0.6-2.1-1.9c-1,0.7-2.8,1.9-4.7,1.9c-3.1,0-4.7-2.1-4.7-4.5c0-1.5,0.7-3.2,3-3.9c2.5-0.8,5.6-1.6,6.4-2.4V26
			c0-2.5-1.3-3.3-2.8-3.3c-1.3,0-2.4,0.7-3.1,3.1c-0.2,0.5-0.4,0.9-1.1,0.9c-0.7,0-1.8-0.5-1.8-1.5c0-1.8,2.6-3.7,6.3-3.7
			c4.9,0,5.5,2.5,5.5,4.4V33.4z M158.1,28.5c-0.7,0.4-2.4,1.1-3.6,1.5c-1.7,0.7-2.4,1.5-2.4,3c0,1.9,1,3.2,2.9,3.2
			c1.2,0,3.1-0.6,3.1-3.2V28.5z"/>
		<path fill="#2B272D" d="M166.2,24.9c0-1.2-0.2-1.3-1-1.5l-1.2-0.2v-0.9l4.9-0.8l0.4,2.3c1.3-0.8,3.1-2.3,5.4-2.3
			c5.6,0,6.2,5.4,6.2,7.9c0,6.6-3.7,8.6-8.1,8.6c-1.4,0-2.9-0.3-3.6-0.7v4.9c0,1.6,0.2,1.7,2.9,1.8v1.1h-8.3v-1.1
			c2.2-0.2,2.3-0.2,2.3-1.8V24.9z M169.4,32.6c0,0.7,0,1.4,0.2,1.9c0.5,1.5,1.8,2.2,3.4,2.2c3.1,0,4.6-2.5,4.6-7.2
			c0-5.5-2.8-6.3-4-6.3c-1.7,0-3,0.8-3.7,2.2c-0.3,0.6-0.4,1-0.4,1.8V32.6z"/>
		<path fill="#2B272D" d="M184.8,17c0-1.2-0.2-1.3-1-1.5l-1.2-0.2v-0.9l5.1-0.8l0.2,0.2v10.1c2-1.3,3.5-2.4,5.8-2.4
			c3,0,4.7,1.9,4.7,5.1v8.1c0,1.5,0.2,1.7,2.4,1.8v1.1H193v-1.1c2.2-0.2,2.4-0.3,2.4-1.8v-7.5c0-2.7-1.2-3.8-3.3-3.8
			c-1.7,0-3.1,1-3.8,2.3c-0.2,0.4-0.3,0.9-0.3,1.7v7.3c0,1.6,0.2,1.7,2.3,1.8v1.1h-7.8v-1.1c2.2-0.2,2.3-0.3,2.3-1.8V17z"/>
		<path fill="#2B272D" d="M205,24.9c0-1.2-0.2-1.4-1-1.5l-1.2-0.2v-0.9l5.1-0.8l0.2,0.2v13c0,1.6,0.1,1.7,2.4,1.8v1.1h-7.9v-1.1
			c2.3-0.2,2.4-0.2,2.4-1.8V24.9z M208.5,17c0,1.1-0.8,1.9-2,1.9c-1.2,0-2-0.8-2-1.9c0-1.2,0.8-2.1,2-2.1
			C207.7,14.9,208.5,15.8,208.5,17z"/>
		<path fill="#2B272D" d="M225.5,33.4c-0.9,3.5-3.9,4.6-6.2,4.6c-4.8,0-7.4-2.7-7.4-8.1c0-4.3,2-8.4,7.8-8.4c3.4,0,5.6,1.6,5.6,3.1
			c0,1.2-1.3,1.6-1.9,1.6c-0.6,0-0.8-0.3-1-0.8c-0.6-1.7-1.5-2.8-3-2.8c-2.1,0-4,1.9-4,6.6c0,3.1,1,6.9,4.7,6.9
			c2.3,0,3.5-1.1,4.5-3.4L225.5,33.4z"/>
	</g>
</g>
</svg>
